<svg width="23" height="20" viewBox="0 0 23 20" fill="none" xmlns="http://www.w3.org/2000/svg">
<path d="M19.8143 0.300297C18.6083 0.298117 17.6289 1.27402 17.6267 2.48005C17.6257 3.04847 17.8464 3.59492 18.2418 4.00321L14.2443 11.9969C14.1567 11.9823 14.0683 11.9733 13.9796 11.9699C13.6971 11.9705 13.4174 12.026 13.1561 12.1333L10.0527 8.64335C10.2339 8.32305 10.3303 7.96181 10.3328 7.59382C10.3328 6.3854 9.35321 5.40578 8.14479 5.40578C6.93637 5.40578 5.95675 6.3854 5.95675 7.59382C5.95889 8.11613 6.14953 8.6201 6.49355 9.01314L2.70093 15.656C2.57204 15.6312 2.44123 15.618 2.30999 15.6166C1.10157 15.6166 0.121948 16.5962 0.121948 17.8046C0.121948 19.013 1.10157 19.9927 2.30999 19.9927C3.51841 19.9927 4.49803 19.013 4.49803 17.8046C4.49589 17.2823 4.30525 16.7783 3.96123 16.3853L7.75385 9.74242C8.16099 9.82284 8.58287 9.77968 8.96531 9.61844L12.0687 13.1084C11.8886 13.4289 11.7931 13.7902 11.7916 14.1579C11.7879 15.3663 12.7645 16.3489 13.973 16.3525C15.1814 16.3562 16.164 15.3795 16.1676 14.1711C16.1693 13.601 15.9484 13.0528 15.552 12.6431L19.5496 4.64941C19.6372 4.66394 19.7256 4.67296 19.8143 4.67638C21.0227 4.67638 22.0023 3.69676 22.0023 2.48834C22.0023 1.27991 21.0227 0.300297 19.8143 0.300297ZM2.30999 18.534C1.90717 18.534 1.58063 18.2074 1.58063 17.8046C1.58063 17.4018 1.90717 17.0753 2.30999 17.0753C2.71281 17.0753 3.03935 17.4018 3.03935 17.8046C3.03935 18.2074 2.71281 18.534 2.30999 18.534ZM8.14475 8.3231C7.74193 8.3231 7.41539 7.99656 7.41539 7.59373C7.41539 7.19091 7.74193 6.86437 8.14475 6.86437C8.54757 6.86437 8.87411 7.19091 8.87411 7.59373C8.87411 7.99656 8.54757 8.3231 8.14475 8.3231ZM13.9796 14.8872C13.5767 14.8872 13.2502 14.5607 13.2502 14.1579C13.2502 13.755 13.5767 13.4285 13.9796 13.4285C14.3824 13.4285 14.7089 13.755 14.7089 14.1579C14.7089 14.5607 14.3823 14.8872 13.9796 14.8872ZM19.8143 3.2177C19.4115 3.2177 19.0849 2.89116 19.0849 2.48834C19.0849 2.08552 19.4115 1.75898 19.8143 1.75898C20.2171 1.75898 20.5437 2.08552 20.5437 2.48834C20.5437 2.89116 20.2171 3.2177 19.8143 3.2177Z" fill="black"/>
</svg>
